<mxfile host="Electron" agent="Mozilla/5.0 (X11; Linux x86_64) AppleWebKit/537.36 (KHTML, like Gecko) draw.io/27.0.9 Chrome/134.0.6998.205 Electron/35.4.0 Safari/537.36" version="27.0.9">
  <diagram name="Page-1" id="nuai9qP-3BBlM04s9XgY">
    <mxGraphModel dx="2276" dy="1941" grid="1" gridSize="10" guides="1" tooltips="1" connect="1" arrows="1" fold="1" page="1" pageScale="1" pageWidth="850" pageHeight="1100" math="0" shadow="0">
      <root>
        <mxCell id="0" />
        <mxCell id="1" parent="0" />
        <mxCell id="OAdjypgsLlzcX7T8h7_s-114" value="" style="rounded=0;whiteSpace=wrap;html=1;verticalAlign=top;fontStyle=1;fontSize=14;fillColor=#f5f5f5;strokeColor=#666666;fontColor=#333333;" vertex="1" parent="1">
          <mxGeometry y="-20" width="620" height="320" as="geometry" />
        </mxCell>
        <mxCell id="OAdjypgsLlzcX7T8h7_s-58" value="" style="rounded=0;whiteSpace=wrap;html=1;verticalAlign=bottom;fontStyle=1;fontSize=14;fillColor=#d5e8d4;strokeColor=#82b366;" vertex="1" parent="1">
          <mxGeometry y="360" width="620" height="470" as="geometry" />
        </mxCell>
        <mxCell id="OAdjypgsLlzcX7T8h7_s-61" style="edgeStyle=none;rounded=0;orthogonalLoop=1;jettySize=auto;html=1;entryX=0.4;entryY=1;entryDx=0;entryDy=0;startArrow=block;startFill=1;exitX=0.75;exitY=0;exitDx=0;exitDy=0;entryPerimeter=0;" edge="1" parent="1" source="OAdjypgsLlzcX7T8h7_s-117" target="OAdjypgsLlzcX7T8h7_s-10">
          <mxGeometry relative="1" as="geometry">
            <mxPoint x="324.96000000000004" y="219" as="sourcePoint" />
            <mxPoint x="320.96000000000004" y="99" as="targetPoint" />
          </mxGeometry>
        </mxCell>
        <mxCell id="OAdjypgsLlzcX7T8h7_s-62" value="QUIC" style="edgeLabel;html=1;align=center;verticalAlign=middle;resizable=0;points=[];" vertex="1" connectable="0" parent="OAdjypgsLlzcX7T8h7_s-61">
          <mxGeometry x="0.0722" y="2" relative="1" as="geometry">
            <mxPoint as="offset" />
          </mxGeometry>
        </mxCell>
        <mxCell id="OAdjypgsLlzcX7T8h7_s-77" style="edgeStyle=none;rounded=0;orthogonalLoop=1;jettySize=auto;html=1;entryX=0;entryY=0.5;entryDx=0;entryDy=0;startArrow=classic;startFill=1;exitX=1;exitY=0.5;exitDx=0;exitDy=0;" edge="1" parent="1" source="OAdjypgsLlzcX7T8h7_s-119" target="OAdjypgsLlzcX7T8h7_s-64">
          <mxGeometry relative="1" as="geometry">
            <mxPoint x="370" y="240.3636363636365" as="sourcePoint" />
          </mxGeometry>
        </mxCell>
        <mxCell id="OAdjypgsLlzcX7T8h7_s-81" value="QUIC" style="edgeLabel;html=1;align=center;verticalAlign=middle;resizable=0;points=[];" vertex="1" connectable="0" parent="OAdjypgsLlzcX7T8h7_s-77">
          <mxGeometry x="-0.0571" y="-3" relative="1" as="geometry">
            <mxPoint y="-3" as="offset" />
          </mxGeometry>
        </mxCell>
        <mxCell id="OAdjypgsLlzcX7T8h7_s-100" style="edgeStyle=none;rounded=0;orthogonalLoop=1;jettySize=auto;html=1;entryX=0.5;entryY=1;entryDx=0;entryDy=0;exitX=1;exitY=0;exitDx=0;exitDy=0;" edge="1" parent="1" source="OAdjypgsLlzcX7T8h7_s-119" target="OAdjypgsLlzcX7T8h7_s-70">
          <mxGeometry relative="1" as="geometry">
            <mxPoint x="370" y="230" as="sourcePoint" />
            <Array as="points">
              <mxPoint x="440" y="210" />
            </Array>
          </mxGeometry>
        </mxCell>
        <mxCell id="OAdjypgsLlzcX7T8h7_s-12" value="" style="group" vertex="1" connectable="0" parent="1">
          <mxGeometry x="265" y="6" width="135" height="93" as="geometry" />
        </mxCell>
        <mxCell id="OAdjypgsLlzcX7T8h7_s-3" value="Cloud API Service" style="rounded=0;whiteSpace=wrap;html=1;verticalAlign=top;container=0;" vertex="1" parent="OAdjypgsLlzcX7T8h7_s-12">
          <mxGeometry width="120" height="80" as="geometry" />
        </mxCell>
        <mxCell id="OAdjypgsLlzcX7T8h7_s-4" value="QUIC&amp;nbsp; Client" style="rounded=0;whiteSpace=wrap;html=1;container=0;" vertex="1" parent="OAdjypgsLlzcX7T8h7_s-12">
          <mxGeometry x="15" y="40" width="90" height="30" as="geometry" />
        </mxCell>
        <mxCell id="OAdjypgsLlzcX7T8h7_s-7" value="Cloud API Service" style="rounded=0;whiteSpace=wrap;html=1;verticalAlign=top;container=0;" vertex="1" parent="OAdjypgsLlzcX7T8h7_s-12">
          <mxGeometry x="7" y="6" width="120" height="80" as="geometry" />
        </mxCell>
        <mxCell id="OAdjypgsLlzcX7T8h7_s-8" value="QUIC&amp;nbsp; Client" style="rounded=0;whiteSpace=wrap;html=1;container=0;" vertex="1" parent="OAdjypgsLlzcX7T8h7_s-12">
          <mxGeometry x="22" y="46" width="90" height="30" as="geometry" />
        </mxCell>
        <mxCell id="OAdjypgsLlzcX7T8h7_s-10" value="Cloud API Service" style="rounded=0;whiteSpace=wrap;html=1;verticalAlign=top;container=0;" vertex="1" parent="OAdjypgsLlzcX7T8h7_s-12">
          <mxGeometry x="15" y="13" width="120" height="80" as="geometry" />
        </mxCell>
        <mxCell id="OAdjypgsLlzcX7T8h7_s-11" value="Zenoh&amp;nbsp; Client" style="rounded=0;whiteSpace=wrap;html=1;container=0;" vertex="1" parent="OAdjypgsLlzcX7T8h7_s-12">
          <mxGeometry x="30" y="53" width="90" height="30" as="geometry" />
        </mxCell>
        <mxCell id="OAdjypgsLlzcX7T8h7_s-15" value="" style="group" vertex="1" connectable="0" parent="1">
          <mxGeometry x="250" y="390" width="120" height="80" as="geometry" />
        </mxCell>
        <mxCell id="OAdjypgsLlzcX7T8h7_s-13" value="Edge API Service" style="rounded=0;whiteSpace=wrap;html=1;verticalAlign=top;container=0;" vertex="1" parent="OAdjypgsLlzcX7T8h7_s-15">
          <mxGeometry width="120" height="80" as="geometry" />
        </mxCell>
        <mxCell id="OAdjypgsLlzcX7T8h7_s-14" value="Zenoh&amp;nbsp; Client" style="rounded=0;whiteSpace=wrap;html=1;container=0;" vertex="1" parent="OAdjypgsLlzcX7T8h7_s-15">
          <mxGeometry x="15" y="40" width="90" height="30" as="geometry" />
        </mxCell>
        <mxCell id="OAdjypgsLlzcX7T8h7_s-32" style="edgeStyle=none;rounded=0;orthogonalLoop=1;jettySize=auto;html=1;entryX=0;entryY=0.5;entryDx=0;entryDy=0;startArrow=classic;startFill=1;exitX=1;exitY=0.5;exitDx=0;exitDy=0;" edge="1" parent="1" source="OAdjypgsLlzcX7T8h7_s-48" target="OAdjypgsLlzcX7T8h7_s-22">
          <mxGeometry relative="1" as="geometry">
            <mxPoint x="150" y="630" as="sourcePoint" />
          </mxGeometry>
        </mxCell>
        <mxCell id="OAdjypgsLlzcX7T8h7_s-36" value="Share Memory" style="edgeLabel;html=1;align=center;verticalAlign=middle;resizable=0;points=[];" vertex="1" connectable="0" parent="OAdjypgsLlzcX7T8h7_s-32">
          <mxGeometry x="-0.06" y="-1" relative="1" as="geometry">
            <mxPoint y="-2" as="offset" />
          </mxGeometry>
        </mxCell>
        <mxCell id="OAdjypgsLlzcX7T8h7_s-53" style="edgeStyle=none;rounded=0;orthogonalLoop=1;jettySize=auto;html=1;" edge="1" parent="1" source="OAdjypgsLlzcX7T8h7_s-19" target="OAdjypgsLlzcX7T8h7_s-24">
          <mxGeometry relative="1" as="geometry" />
        </mxCell>
        <mxCell id="OAdjypgsLlzcX7T8h7_s-19" value="Postgres" style="shape=cylinder3;whiteSpace=wrap;html=1;boundedLbl=1;backgroundOutline=1;size=15;" vertex="1" parent="1">
          <mxGeometry x="507" y="405" width="70" height="50" as="geometry" />
        </mxCell>
        <mxCell id="OAdjypgsLlzcX7T8h7_s-50" style="edgeStyle=none;rounded=0;orthogonalLoop=1;jettySize=auto;html=1;entryX=0;entryY=0.5;entryDx=0;entryDy=0;startArrow=classic;startFill=1;" edge="1" parent="1" source="OAdjypgsLlzcX7T8h7_s-22" target="OAdjypgsLlzcX7T8h7_s-24">
          <mxGeometry relative="1" as="geometry" />
        </mxCell>
        <mxCell id="OAdjypgsLlzcX7T8h7_s-51" value="Share Memory" style="edgeLabel;html=1;align=center;verticalAlign=middle;resizable=0;points=[];" vertex="1" connectable="0" parent="OAdjypgsLlzcX7T8h7_s-50">
          <mxGeometry x="0.025" y="-4" relative="1" as="geometry">
            <mxPoint x="-2" y="-4" as="offset" />
          </mxGeometry>
        </mxCell>
        <mxCell id="OAdjypgsLlzcX7T8h7_s-55" style="edgeStyle=none;rounded=0;orthogonalLoop=1;jettySize=auto;html=1;exitX=1;exitY=0;exitDx=0;exitDy=0;entryX=0.5;entryY=1;entryDx=0;entryDy=0;" edge="1" parent="1" source="OAdjypgsLlzcX7T8h7_s-22" target="OAdjypgsLlzcX7T8h7_s-26">
          <mxGeometry relative="1" as="geometry">
            <mxPoint x="400" y="560" as="targetPoint" />
            <Array as="points">
              <mxPoint x="433" y="580" />
            </Array>
          </mxGeometry>
        </mxCell>
        <mxCell id="OAdjypgsLlzcX7T8h7_s-56" style="edgeStyle=none;rounded=0;orthogonalLoop=1;jettySize=auto;html=1;exitX=0.5;exitY=0;exitDx=0;exitDy=0;startArrow=classic;startFill=1;" edge="1" parent="1" source="OAdjypgsLlzcX7T8h7_s-22" target="OAdjypgsLlzcX7T8h7_s-13">
          <mxGeometry relative="1" as="geometry" />
        </mxCell>
        <mxCell id="OAdjypgsLlzcX7T8h7_s-57" value="Share Memory" style="edgeLabel;html=1;align=center;verticalAlign=middle;resizable=0;points=[];" vertex="1" connectable="0" parent="OAdjypgsLlzcX7T8h7_s-56">
          <mxGeometry x="-0.0362" y="-2" relative="1" as="geometry">
            <mxPoint as="offset" />
          </mxGeometry>
        </mxCell>
        <mxCell id="OAdjypgsLlzcX7T8h7_s-22" value="Zenoh Server" style="rounded=0;whiteSpace=wrap;html=1;" vertex="1" parent="1">
          <mxGeometry x="250" y="610" width="120" height="40" as="geometry" />
        </mxCell>
        <mxCell id="OAdjypgsLlzcX7T8h7_s-23" value="" style="group" vertex="1" connectable="0" parent="1">
          <mxGeometry x="482" y="590" width="120" height="80" as="geometry" />
        </mxCell>
        <mxCell id="OAdjypgsLlzcX7T8h7_s-24" value="Rule Engine" style="rounded=0;whiteSpace=wrap;html=1;verticalAlign=top;container=0;" vertex="1" parent="OAdjypgsLlzcX7T8h7_s-23">
          <mxGeometry width="120" height="80" as="geometry" />
        </mxCell>
        <mxCell id="OAdjypgsLlzcX7T8h7_s-25" value="Zenoh&amp;nbsp; Client" style="rounded=0;whiteSpace=wrap;html=1;container=0;" vertex="1" parent="OAdjypgsLlzcX7T8h7_s-23">
          <mxGeometry x="15" y="40" width="90" height="30" as="geometry" />
        </mxCell>
        <mxCell id="OAdjypgsLlzcX7T8h7_s-54" style="edgeStyle=none;rounded=0;orthogonalLoop=1;jettySize=auto;html=1;exitX=0.5;exitY=0;exitDx=0;exitDy=0;entryX=1;entryY=1;entryDx=0;entryDy=0;" edge="1" parent="1" source="OAdjypgsLlzcX7T8h7_s-26" target="OAdjypgsLlzcX7T8h7_s-13">
          <mxGeometry relative="1" as="geometry">
            <Array as="points">
              <mxPoint x="433" y="480" />
            </Array>
          </mxGeometry>
        </mxCell>
        <mxCell id="OAdjypgsLlzcX7T8h7_s-26" value="QuestDB" style="rounded=0;whiteSpace=wrap;html=1;" vertex="1" parent="1">
          <mxGeometry x="373" y="510" width="120" height="40" as="geometry" />
        </mxCell>
        <mxCell id="OAdjypgsLlzcX7T8h7_s-28" value="" style="group" vertex="1" connectable="0" parent="1">
          <mxGeometry x="-170" y="730" width="132" height="52" as="geometry" />
        </mxCell>
        <mxCell id="OAdjypgsLlzcX7T8h7_s-18" value="IOT Device" style="rounded=0;whiteSpace=wrap;html=1;" vertex="1" parent="OAdjypgsLlzcX7T8h7_s-28">
          <mxGeometry width="120" height="40" as="geometry" />
        </mxCell>
        <mxCell id="OAdjypgsLlzcX7T8h7_s-20" value="IOT Device" style="rounded=0;whiteSpace=wrap;html=1;" vertex="1" parent="OAdjypgsLlzcX7T8h7_s-28">
          <mxGeometry x="5" y="6" width="120" height="40" as="geometry" />
        </mxCell>
        <mxCell id="OAdjypgsLlzcX7T8h7_s-21" value="IOT Device" style="rounded=0;whiteSpace=wrap;html=1;" vertex="1" parent="OAdjypgsLlzcX7T8h7_s-28">
          <mxGeometry x="12" y="12" width="120" height="40" as="geometry" />
        </mxCell>
        <mxCell id="OAdjypgsLlzcX7T8h7_s-34" style="edgeStyle=none;rounded=0;orthogonalLoop=1;jettySize=auto;html=1;startArrow=classic;startFill=1;exitX=0.5;exitY=0;exitDx=0;exitDy=0;" edge="1" parent="1" source="OAdjypgsLlzcX7T8h7_s-44" target="OAdjypgsLlzcX7T8h7_s-22">
          <mxGeometry relative="1" as="geometry">
            <mxPoint x="310" y="670" as="sourcePoint" />
          </mxGeometry>
        </mxCell>
        <mxCell id="OAdjypgsLlzcX7T8h7_s-35" value="Share Memory" style="edgeLabel;html=1;align=center;verticalAlign=middle;resizable=0;points=[];" vertex="1" connectable="0" parent="OAdjypgsLlzcX7T8h7_s-34">
          <mxGeometry x="0.08" y="-2" relative="1" as="geometry">
            <mxPoint as="offset" />
          </mxGeometry>
        </mxCell>
        <mxCell id="OAdjypgsLlzcX7T8h7_s-33" style="edgeStyle=none;rounded=0;orthogonalLoop=1;jettySize=auto;html=1;entryX=0;entryY=0.5;entryDx=0;entryDy=0;startArrow=classic;startFill=1;" edge="1" parent="1" source="OAdjypgsLlzcX7T8h7_s-21" target="OAdjypgsLlzcX7T8h7_s-44">
          <mxGeometry relative="1" as="geometry">
            <mxPoint x="250" y="690" as="targetPoint" />
          </mxGeometry>
        </mxCell>
        <mxCell id="OAdjypgsLlzcX7T8h7_s-46" value="MQTT/CoAP/HTTP .." style="edgeLabel;html=1;align=center;verticalAlign=middle;resizable=0;points=[];" vertex="1" connectable="0" parent="OAdjypgsLlzcX7T8h7_s-33">
          <mxGeometry x="-0.0213" relative="1" as="geometry">
            <mxPoint as="offset" />
          </mxGeometry>
        </mxCell>
        <mxCell id="OAdjypgsLlzcX7T8h7_s-37" style="edgeStyle=none;rounded=0;orthogonalLoop=1;jettySize=auto;html=1;entryX=0;entryY=1;entryDx=0;entryDy=0;dashed=1;dashPattern=8 8;startArrow=classic;startFill=1;strokeColor=#FF3333;" edge="1" parent="1" source="OAdjypgsLlzcX7T8h7_s-21" target="OAdjypgsLlzcX7T8h7_s-22">
          <mxGeometry relative="1" as="geometry">
            <Array as="points">
              <mxPoint x="110" y="720" />
            </Array>
          </mxGeometry>
        </mxCell>
        <mxCell id="OAdjypgsLlzcX7T8h7_s-38" value="Protocol extend" style="edgeLabel;html=1;align=center;verticalAlign=middle;resizable=0;points=[];" vertex="1" connectable="0" parent="OAdjypgsLlzcX7T8h7_s-37">
          <mxGeometry x="0.0109" relative="1" as="geometry">
            <mxPoint as="offset" />
          </mxGeometry>
        </mxCell>
        <mxCell id="OAdjypgsLlzcX7T8h7_s-43" value="" style="group" vertex="1" connectable="0" parent="1">
          <mxGeometry x="250" y="722" width="120" height="80" as="geometry" />
        </mxCell>
        <mxCell id="OAdjypgsLlzcX7T8h7_s-44" value="Adaptor" style="rounded=0;whiteSpace=wrap;html=1;verticalAlign=top;container=0;" vertex="1" parent="OAdjypgsLlzcX7T8h7_s-43">
          <mxGeometry width="120" height="80" as="geometry" />
        </mxCell>
        <mxCell id="OAdjypgsLlzcX7T8h7_s-45" value="Zenoh&amp;nbsp; Client" style="rounded=0;whiteSpace=wrap;html=1;container=0;" vertex="1" parent="OAdjypgsLlzcX7T8h7_s-43">
          <mxGeometry x="15" y="40" width="90" height="30" as="geometry" />
        </mxCell>
        <mxCell id="OAdjypgsLlzcX7T8h7_s-47" value="" style="group" vertex="1" connectable="0" parent="1">
          <mxGeometry x="16" y="590" width="120" height="80" as="geometry" />
        </mxCell>
        <mxCell id="OAdjypgsLlzcX7T8h7_s-48" value="&lt;b&gt;Gateway&lt;/b&gt;" style="rounded=0;whiteSpace=wrap;html=1;verticalAlign=top;container=0;strokeWidth=3;strokeColor=#009900;" vertex="1" parent="OAdjypgsLlzcX7T8h7_s-47">
          <mxGeometry width="120" height="80" as="geometry" />
        </mxCell>
        <mxCell id="OAdjypgsLlzcX7T8h7_s-49" value="Zenoh&amp;nbsp; Client" style="rounded=0;whiteSpace=wrap;html=1;container=0;" vertex="1" parent="OAdjypgsLlzcX7T8h7_s-47">
          <mxGeometry x="15" y="40" width="90" height="30" as="geometry" />
        </mxCell>
        <mxCell id="OAdjypgsLlzcX7T8h7_s-52" style="edgeStyle=none;rounded=0;orthogonalLoop=1;jettySize=auto;html=1;entryX=0;entryY=0.5;entryDx=0;entryDy=0;entryPerimeter=0;startArrow=classic;startFill=1;" edge="1" parent="1" source="OAdjypgsLlzcX7T8h7_s-13" target="OAdjypgsLlzcX7T8h7_s-19">
          <mxGeometry relative="1" as="geometry" />
        </mxCell>
        <mxCell id="OAdjypgsLlzcX7T8h7_s-59" style="edgeStyle=none;rounded=0;orthogonalLoop=1;jettySize=auto;html=1;entryX=0.5;entryY=1;entryDx=0;entryDy=0;startArrow=classic;startFill=1;strokeWidth=3;dashed=1;strokeColor=#009900;" edge="1" parent="1" source="OAdjypgsLlzcX7T8h7_s-13" target="OAdjypgsLlzcX7T8h7_s-119">
          <mxGeometry relative="1" as="geometry">
            <mxPoint x="310" y="260" as="targetPoint" />
          </mxGeometry>
        </mxCell>
        <mxCell id="OAdjypgsLlzcX7T8h7_s-60" value="QUIC" style="edgeLabel;html=1;align=center;verticalAlign=middle;resizable=0;points=[];fontStyle=1;fontColor=#FF3333;" vertex="1" connectable="0" parent="OAdjypgsLlzcX7T8h7_s-59">
          <mxGeometry x="0.18" relative="1" as="geometry">
            <mxPoint y="11" as="offset" />
          </mxGeometry>
        </mxCell>
        <mxCell id="OAdjypgsLlzcX7T8h7_s-63" value="" style="group" vertex="1" connectable="0" parent="1">
          <mxGeometry x="475" y="250" width="120" height="80" as="geometry" />
        </mxCell>
        <mxCell id="OAdjypgsLlzcX7T8h7_s-64" value="Rule Engine" style="rounded=0;whiteSpace=wrap;html=1;verticalAlign=top;container=0;" vertex="1" parent="OAdjypgsLlzcX7T8h7_s-63">
          <mxGeometry y="-39" width="120" height="80" as="geometry" />
        </mxCell>
        <mxCell id="OAdjypgsLlzcX7T8h7_s-65" value="Zenoh&amp;nbsp; Client" style="rounded=0;whiteSpace=wrap;html=1;container=0;" vertex="1" parent="OAdjypgsLlzcX7T8h7_s-63">
          <mxGeometry x="15" width="90" height="30" as="geometry" />
        </mxCell>
        <mxCell id="OAdjypgsLlzcX7T8h7_s-71" value="" style="group" vertex="1" connectable="0" parent="1">
          <mxGeometry x="367" y="130" width="133" height="51" as="geometry" />
        </mxCell>
        <mxCell id="OAdjypgsLlzcX7T8h7_s-68" value="QuestDB" style="rounded=0;whiteSpace=wrap;html=1;" vertex="1" parent="OAdjypgsLlzcX7T8h7_s-71">
          <mxGeometry width="120" height="40" as="geometry" />
        </mxCell>
        <mxCell id="OAdjypgsLlzcX7T8h7_s-69" value="QuestDB" style="rounded=0;whiteSpace=wrap;html=1;" vertex="1" parent="OAdjypgsLlzcX7T8h7_s-71">
          <mxGeometry x="6" y="5" width="120" height="40" as="geometry" />
        </mxCell>
        <mxCell id="OAdjypgsLlzcX7T8h7_s-70" value="QuestDB" style="rounded=0;whiteSpace=wrap;html=1;" vertex="1" parent="OAdjypgsLlzcX7T8h7_s-71">
          <mxGeometry x="13" y="11" width="120" height="40" as="geometry" />
        </mxCell>
        <mxCell id="OAdjypgsLlzcX7T8h7_s-80" style="edgeStyle=none;rounded=0;orthogonalLoop=1;jettySize=auto;html=1;entryX=0.5;entryY=0;entryDx=0;entryDy=0;" edge="1" parent="1" source="OAdjypgsLlzcX7T8h7_s-72" target="OAdjypgsLlzcX7T8h7_s-64">
          <mxGeometry relative="1" as="geometry" />
        </mxCell>
        <mxCell id="OAdjypgsLlzcX7T8h7_s-72" value="Postgres" style="shape=cylinder3;whiteSpace=wrap;html=1;boundedLbl=1;backgroundOutline=1;size=15;" vertex="1" parent="1">
          <mxGeometry x="500" y="44" width="70" height="50" as="geometry" />
        </mxCell>
        <mxCell id="OAdjypgsLlzcX7T8h7_s-79" style="edgeStyle=none;rounded=0;orthogonalLoop=1;jettySize=auto;html=1;entryX=0;entryY=0;entryDx=0;entryDy=15;entryPerimeter=0;startArrow=classic;startFill=1;" edge="1" parent="1" source="OAdjypgsLlzcX7T8h7_s-10" target="OAdjypgsLlzcX7T8h7_s-72">
          <mxGeometry relative="1" as="geometry" />
        </mxCell>
        <mxCell id="OAdjypgsLlzcX7T8h7_s-86" style="edgeStyle=none;rounded=0;orthogonalLoop=1;jettySize=auto;html=1;entryX=0.25;entryY=0;entryDx=0;entryDy=0;startArrow=classic;startFill=1;exitX=1;exitY=1;exitDx=0;exitDy=0;" edge="1" parent="1" source="OAdjypgsLlzcX7T8h7_s-96" target="OAdjypgsLlzcX7T8h7_s-117">
          <mxGeometry relative="1" as="geometry">
            <mxPoint x="382" y="229" as="sourcePoint" />
            <mxPoint x="250" y="220" as="targetPoint" />
            <Array as="points" />
          </mxGeometry>
        </mxCell>
        <mxCell id="OAdjypgsLlzcX7T8h7_s-87" value="QUIC" style="edgeLabel;html=1;align=center;verticalAlign=middle;resizable=0;points=[];" vertex="1" connectable="0" parent="OAdjypgsLlzcX7T8h7_s-86">
          <mxGeometry x="-0.0877" y="1" relative="1" as="geometry">
            <mxPoint x="1" y="1" as="offset" />
          </mxGeometry>
        </mxCell>
        <mxCell id="OAdjypgsLlzcX7T8h7_s-98" value="" style="group" vertex="1" connectable="0" parent="1">
          <mxGeometry x="108" y="86" width="170" height="95" as="geometry" />
        </mxCell>
        <mxCell id="OAdjypgsLlzcX7T8h7_s-88" value="" style="group" vertex="1" connectable="0" parent="OAdjypgsLlzcX7T8h7_s-98">
          <mxGeometry width="170" height="95" as="geometry" />
        </mxCell>
        <mxCell id="OAdjypgsLlzcX7T8h7_s-89" value="Adaptor" style="rounded=0;whiteSpace=wrap;html=1;verticalAlign=top;container=0;" vertex="1" parent="OAdjypgsLlzcX7T8h7_s-88">
          <mxGeometry width="120" height="80" as="geometry" />
        </mxCell>
        <mxCell id="OAdjypgsLlzcX7T8h7_s-90" value="Zenoh&amp;nbsp; Client" style="rounded=0;whiteSpace=wrap;html=1;container=0;" vertex="1" parent="OAdjypgsLlzcX7T8h7_s-88">
          <mxGeometry x="15" y="40" width="90" height="30" as="geometry" />
        </mxCell>
        <mxCell id="OAdjypgsLlzcX7T8h7_s-92" value="" style="group" vertex="1" connectable="0" parent="OAdjypgsLlzcX7T8h7_s-88">
          <mxGeometry x="6" y="6" width="120" height="80" as="geometry" />
        </mxCell>
        <mxCell id="OAdjypgsLlzcX7T8h7_s-93" value="Adaptor" style="rounded=0;whiteSpace=wrap;html=1;verticalAlign=top;container=0;" vertex="1" parent="OAdjypgsLlzcX7T8h7_s-92">
          <mxGeometry width="120" height="80" as="geometry" />
        </mxCell>
        <mxCell id="OAdjypgsLlzcX7T8h7_s-94" value="Zenoh&amp;nbsp; Client" style="rounded=0;whiteSpace=wrap;html=1;container=0;" vertex="1" parent="OAdjypgsLlzcX7T8h7_s-92">
          <mxGeometry x="15" y="40" width="90" height="30" as="geometry" />
        </mxCell>
        <mxCell id="OAdjypgsLlzcX7T8h7_s-95" value="" style="group" vertex="1" connectable="0" parent="OAdjypgsLlzcX7T8h7_s-98">
          <mxGeometry x="13" y="13" width="120" height="80" as="geometry" />
        </mxCell>
        <mxCell id="OAdjypgsLlzcX7T8h7_s-96" value="Adaptor" style="rounded=0;whiteSpace=wrap;html=1;verticalAlign=top;container=0;" vertex="1" parent="OAdjypgsLlzcX7T8h7_s-95">
          <mxGeometry width="120" height="80" as="geometry" />
        </mxCell>
        <mxCell id="OAdjypgsLlzcX7T8h7_s-97" value="Zenoh&amp;nbsp; Client" style="rounded=0;whiteSpace=wrap;html=1;container=0;" vertex="1" parent="OAdjypgsLlzcX7T8h7_s-95">
          <mxGeometry x="15" y="40" width="90" height="30" as="geometry" />
        </mxCell>
        <mxCell id="OAdjypgsLlzcX7T8h7_s-101" style="edgeStyle=none;rounded=0;orthogonalLoop=1;jettySize=auto;html=1;entryX=1;entryY=1;entryDx=0;entryDy=0;" edge="1" parent="1" target="OAdjypgsLlzcX7T8h7_s-10">
          <mxGeometry relative="1" as="geometry">
            <mxPoint x="440" y="130" as="sourcePoint" />
            <Array as="points">
              <mxPoint x="440" y="110" />
            </Array>
          </mxGeometry>
        </mxCell>
        <mxCell id="OAdjypgsLlzcX7T8h7_s-102" value="" style="group" vertex="1" connectable="0" parent="1">
          <mxGeometry x="-181" y="94" width="132" height="52" as="geometry" />
        </mxCell>
        <mxCell id="OAdjypgsLlzcX7T8h7_s-103" value="IOT Device" style="rounded=0;whiteSpace=wrap;html=1;" vertex="1" parent="OAdjypgsLlzcX7T8h7_s-102">
          <mxGeometry width="120" height="40" as="geometry" />
        </mxCell>
        <mxCell id="OAdjypgsLlzcX7T8h7_s-104" value="IOT Device" style="rounded=0;whiteSpace=wrap;html=1;" vertex="1" parent="OAdjypgsLlzcX7T8h7_s-102">
          <mxGeometry x="5" y="6" width="120" height="40" as="geometry" />
        </mxCell>
        <mxCell id="OAdjypgsLlzcX7T8h7_s-105" value="IOT Device" style="rounded=0;whiteSpace=wrap;html=1;" vertex="1" parent="OAdjypgsLlzcX7T8h7_s-102">
          <mxGeometry x="12" y="12" width="120" height="40" as="geometry" />
        </mxCell>
        <mxCell id="OAdjypgsLlzcX7T8h7_s-106" style="edgeStyle=none;rounded=0;orthogonalLoop=1;jettySize=auto;html=1;entryX=0;entryY=0.5;entryDx=0;entryDy=0;startArrow=classic;startFill=1;" edge="1" parent="1" source="OAdjypgsLlzcX7T8h7_s-105" target="OAdjypgsLlzcX7T8h7_s-89">
          <mxGeometry relative="1" as="geometry" />
        </mxCell>
        <mxCell id="OAdjypgsLlzcX7T8h7_s-112" value="HTTP/MQTT/CoAP/LwM2M" style="edgeLabel;html=1;align=center;verticalAlign=middle;resizable=0;points=[];" vertex="1" connectable="0" parent="OAdjypgsLlzcX7T8h7_s-106">
          <mxGeometry x="-0.1598" y="3" relative="1" as="geometry">
            <mxPoint x="12" y="17" as="offset" />
          </mxGeometry>
        </mxCell>
        <mxCell id="OAdjypgsLlzcX7T8h7_s-107" value="" style="group;labelBorderColor=#009900;strokeColor=#009900;strokeWidth=3;fontColor=#FF3333;" vertex="1" connectable="0" parent="1">
          <mxGeometry x="-169" y="200" width="120" height="80" as="geometry" />
        </mxCell>
        <mxCell id="OAdjypgsLlzcX7T8h7_s-108" value="&lt;font style=&quot;color: rgb(51, 51, 51);&quot;&gt;&lt;b&gt;Gateway&lt;/b&gt;&lt;/font&gt;" style="rounded=0;whiteSpace=wrap;html=1;verticalAlign=top;container=0;strokeColor=#009900;strokeWidth=3;" vertex="1" parent="OAdjypgsLlzcX7T8h7_s-107">
          <mxGeometry width="120" height="80" as="geometry" />
        </mxCell>
        <mxCell id="OAdjypgsLlzcX7T8h7_s-109" value="Zenoh&amp;nbsp; Client" style="rounded=0;whiteSpace=wrap;html=1;container=0;" vertex="1" parent="OAdjypgsLlzcX7T8h7_s-107">
          <mxGeometry x="15" y="40" width="90" height="30" as="geometry" />
        </mxCell>
        <mxCell id="OAdjypgsLlzcX7T8h7_s-110" style="edgeStyle=none;rounded=0;orthogonalLoop=1;jettySize=auto;html=1;entryX=0;entryY=0.5;entryDx=0;entryDy=0;startArrow=classic;startFill=1;" edge="1" parent="1" source="OAdjypgsLlzcX7T8h7_s-108" target="OAdjypgsLlzcX7T8h7_s-117">
          <mxGeometry relative="1" as="geometry">
            <mxPoint x="250" y="240" as="targetPoint" />
          </mxGeometry>
        </mxCell>
        <mxCell id="OAdjypgsLlzcX7T8h7_s-111" value="&lt;b&gt;QUIC&lt;/b&gt;: Connect withou Edge" style="edgeLabel;html=1;align=center;verticalAlign=middle;resizable=0;points=[];" vertex="1" connectable="0" parent="OAdjypgsLlzcX7T8h7_s-110">
          <mxGeometry x="-0.2138" y="-1" relative="1" as="geometry">
            <mxPoint x="14" y="-1" as="offset" />
          </mxGeometry>
        </mxCell>
        <mxCell id="OAdjypgsLlzcX7T8h7_s-120" value="" style="group" vertex="1" connectable="0" parent="1">
          <mxGeometry x="238" y="220" width="132" height="51" as="geometry" />
        </mxCell>
        <mxCell id="OAdjypgsLlzcX7T8h7_s-117" value="Zenoh Server" style="rounded=0;whiteSpace=wrap;html=1;" vertex="1" parent="OAdjypgsLlzcX7T8h7_s-120">
          <mxGeometry width="120" height="40" as="geometry" />
        </mxCell>
        <mxCell id="OAdjypgsLlzcX7T8h7_s-118" value="Zenoh Server" style="rounded=0;whiteSpace=wrap;html=1;" vertex="1" parent="OAdjypgsLlzcX7T8h7_s-120">
          <mxGeometry x="5" y="5" width="120" height="40" as="geometry" />
        </mxCell>
        <mxCell id="OAdjypgsLlzcX7T8h7_s-119" value="Zenoh Server" style="rounded=0;whiteSpace=wrap;html=1;" vertex="1" parent="OAdjypgsLlzcX7T8h7_s-120">
          <mxGeometry x="12" y="11" width="120" height="40" as="geometry" />
        </mxCell>
        <mxCell id="OAdjypgsLlzcX7T8h7_s-121" value="&lt;b&gt;&lt;font style=&quot;font-size: 14px;&quot;&gt;Cloud&lt;/font&gt;&lt;/b&gt;" style="text;html=1;align=center;verticalAlign=middle;resizable=0;points=[];autosize=1;strokeColor=none;fillColor=none;" vertex="1" parent="1">
          <mxGeometry x="10" y="-10" width="60" height="30" as="geometry" />
        </mxCell>
        <mxCell id="OAdjypgsLlzcX7T8h7_s-122" value="&lt;b&gt;&lt;font style=&quot;font-size: 14px;&quot;&gt;Edge&lt;/font&gt;&lt;/b&gt;" style="text;html=1;align=center;verticalAlign=middle;resizable=0;points=[];autosize=1;strokeColor=none;fillColor=none;" vertex="1" parent="1">
          <mxGeometry x="16" y="375" width="60" height="30" as="geometry" />
        </mxCell>
      </root>
    </mxGraphModel>
  </diagram>
</mxfile>
